<svg width="134" height="140" viewBox="0 0 134 140" fill="none" xmlns="http://www.w3.org/2000/svg">
<path d="M17.6169 30.4814C20.9471 26.5879 24.7446 23.1074 28.9095 20.083" stroke="#212529" stroke-width="3" stroke-linecap="round" stroke-linejoin="round"/>
<path d="M103.222 126.806C92.8774 133.724 80.4514 137.776 67.0703 137.776C60.4758 137.776 54.1221 136.778 48.123 134.951" stroke="#212529" stroke-width="3" stroke-linecap="round" stroke-linejoin="round"/>
<path d="M26.2122 123.319C16.9493 115.836 9.83472 105.844 5.78394 94.3992" stroke="#212529" stroke-width="3" stroke-linecap="round" stroke-linejoin="round"/>
<path d="M5.78369 51.0181C3.37427 57.811 2 65.0903 2 72.7075" stroke="#212529" stroke-width="3" stroke-linecap="round" stroke-linejoin="round"/>
<path d="M121.028 108.864C127.996 98.5149 132.14 86.1213 132.14 72.7083C132.14 36.7668 103.009 7.63794 67.0701 7.63794" stroke="#212529" stroke-width="3" stroke-linecap="round" stroke-linejoin="round"/>
<g clip-path="url(#clip0_1751_42347)">
<rect width="18" height="18" transform="translate(41.9836 0.224365) rotate(24.3216)" fill="white" fill-opacity="0.01"/>
<path d="M40.5684 18.7207C40.4915 18.6859 40.4402 18.6627 40.3749 18.6024C40.1418 18.4353 40.0179 18.1632 40.0196 17.8862L40.0404 14.5623L37.8542 12.0927C37.6698 11.8859 37.5831 11.5998 37.6477 11.3203C37.7123 11.0409 37.8794 10.8077 38.1258 10.6722L39.6185 9.89625C39.9766 9.71859 40.3817 9.77824 40.6826 10.0686L42.1614 11.5085L44.9565 10.241L42.9902 5.03125C42.9059 4.80798 42.896 4.55662 43.0003 4.32596C43.1046 4.0953 43.2741 3.92502 43.523 3.85233L44.7022 3.42851C45.0371 3.3021 45.4307 3.38738 45.6803 3.65453L50.0844 8.1142L51.8334 7.45407C53.2475 6.92035 54.8069 6.88444 56.2604 7.35617L56.286 7.36776C56.6564 7.5043 56.9573 7.79461 57.1234 8.17832C57.2638 8.55044 57.2298 8.96716 57.042 9.31438C56.2768 10.6661 55.0593 11.7207 53.594 12.2313L51.8822 12.8774L51.4975 19.1233C51.4867 19.4887 51.2476 19.8128 50.9127 19.9392L49.7591 20.3746C49.2754 20.5572 48.7628 20.3255 48.5802 19.8418L46.5998 14.5948L43.6386 15.4787L43.5057 17.5482C43.4833 17.9393 43.207 18.2774 42.8208 18.3807L41.1877 18.7845C40.9876 18.8175 40.7734 18.8133 40.5684 18.7207ZM39.1053 11.5779L41.1842 13.8755C41.2892 13.9847 41.3453 14.1335 41.3387 14.2848L41.3105 17.4203L42.2457 17.1948L42.3968 14.9483C42.4242 14.6829 42.5913 14.4498 42.8402 14.3771L46.8227 13.2141C47.146 13.1133 47.4676 13.2895 47.6056 13.5988L49.6421 18.9946L50.2747 18.7558L50.6521 12.3214C50.6678 12.0816 50.8349 11.8485 51.0582 11.7642L53.1421 10.9777C54.3213 10.5538 55.3204 9.7091 55.907 8.61618C55.9185 8.59055 55.9301 8.56493 55.9045 8.55334C55.8904 8.51613 55.8904 8.51613 55.8648 8.50455L55.8392 8.49296C54.6792 8.12302 53.4084 8.13504 52.2804 8.58203L50.1477 9.40824C49.9244 9.49251 49.645 9.42794 49.4747 9.25838L44.9144 4.66636L44.2817 4.90513L46.3324 10.3381C46.4447 10.6358 46.3082 11.0062 45.9989 11.1442L42.2643 12.8514C42.0295 12.9613 41.7384 12.9223 41.5541 12.7156L39.9447 11.1548L39.1053 11.5779Z" fill="#212529"/>
</g>
<defs>
<clipPath id="clip0_1751_42347">
<rect width="18" height="18" fill="white" transform="translate(41.9836 0.224365) rotate(24.3216)"/>
</clipPath>
</defs>
</svg>
