<svg width="38" height="50" viewBox="0 0 38 50" fill="none" xmlns="http://www.w3.org/2000/svg">
<path d="M22.3229 24.7731C21.2193 24.7936 20.1229 24.5913 19.0982 24.1782C18.0734 23.765 17.1413 23.1494 16.3566 22.3676C15.572 21.5859 14.9508 20.6537 14.5297 19.6263C14.1085 18.5989 13.896 17.4969 13.9045 16.3854C13.9045 11.7243 17.6629 8.08208 22.4278 8.09264C24.6557 8.08134 26.7975 8.95818 28.3855 10.5317C29.9736 12.1052 30.8789 14.2476 30.9038 16.491C30.8881 21.0675 27.0458 24.7784 22.3229 24.7731ZM14.607 16.4223C14.583 17.977 15.0188 19.5036 15.8587 20.8082C16.6987 22.1128 17.905 23.1364 19.3241 23.7488C20.7433 24.3613 22.3113 24.5348 23.8287 24.2475C25.3461 23.9602 26.7443 23.2249 27.8456 22.1352C28.947 21.0455 29.7017 19.6506 30.0137 18.1279C30.3257 16.6052 30.181 15.0234 29.598 13.5837C29.0149 12.144 28.0199 10.9114 26.7394 10.0426C25.4589 9.17392 23.9508 8.70829 22.4068 8.70496C20.3612 8.70329 18.3968 9.51151 16.9376 10.9553C15.4784 12.399 14.6413 14.3626 14.607 16.4223Z" fill="#313131"/>
<path d="M12.3265 41.5486C10.7966 39.8152 9.80604 37.6674 9.47801 35.3719C9.14997 33.0764 9.49889 30.7345 10.4814 28.637C10.6816 29.0107 10.9168 29.3642 11.1838 29.6928C13.6771 32.1342 16.9219 33.6476 20.3835 33.9834C23.8452 34.3193 27.3172 33.4576 30.2274 31.5403C37.0418 27.1643 39.8095 17.5677 36.3237 10.0087C33.5612 4.02273 28.9432 0.507153 22.2913 0.243221C14.7168 -0.0312682 8.33226 5.19987 6.3823 12.912C6.16499 13.7049 5.82157 14.4572 5.36538 15.1395C0.123537 23.0997 -1.39659 31.5033 2.47713 40.477C5.4807 47.4237 11.7133 50.8601 18.5643 49.4507C20.5935 49.1308 22.496 48.2541 24.063 46.917C19.5184 46.4261 15.4087 45.08 12.3265 41.5486ZM30.9036 16.4909C30.9036 21.0675 27.0456 24.7784 22.3227 24.7731C21.2191 24.7935 20.1227 24.5912 19.0979 24.1781C18.0732 23.765 17.1411 23.1493 16.3564 22.3676C15.5718 21.5858 14.9506 20.6537 14.5295 19.6262C14.1083 18.5988 13.8958 17.4968 13.9043 16.3853C13.9043 11.7243 17.6627 8.082 22.4276 8.09256C24.6554 8.08127 26.7973 8.95811 28.3853 10.5316C29.9734 12.1051 30.8787 14.2475 30.9036 16.4909Z" fill="#313131"/>
<path d="M30.9406 36.3596C30.276 36.3553 29.6172 36.4849 29.0031 36.741C28.3891 36.997 27.8321 37.3743 27.3651 37.8505C26.8981 38.3267 26.5305 38.8922 26.2839 39.5137C26.0373 40.1352 25.9168 40.8002 25.9294 41.4693C25.9784 42.7887 26.5353 44.037 27.4821 44.9503C28.429 45.8635 29.6915 46.3699 31.0026 46.3624C32.3136 46.3548 33.5703 45.8339 34.5067 44.9098C35.4432 43.9858 35.9858 42.7311 36.0199 41.4113C36.0207 40.7423 35.8893 40.0799 35.6336 39.4625C35.3778 38.8451 35.0027 38.2851 34.53 37.815C34.0574 37.345 33.4966 36.9742 32.8804 36.7243C32.2642 36.4745 31.6048 36.3505 30.9406 36.3596Z" fill="#313131"/>
</svg>
